<?xml version="1.0" standalone="no"?>
<!DOCTYPE svg PUBLIC "-//W3C//DTD SVG 1.1//EN" "http://www.w3.org/Graphics/SVG/1.1/DTD/svg11.dtd" >
<svg xmlns="http://www.w3.org/2000/svg">
<metadata>Generated by IcoMoon</metadata>
<defs>
<font id="icomoon" horiz-adv-x="1024">
<font-face units-per-em="1024" ascent="958.9364613880743" descent="-65.06353861192571" />
<missing-glyph horiz-adv-x="1024" />
<glyph unicode="&#x20;" horiz-adv-x="450.43988269794716" d="" />
<glyph unicode="&#xe800;" glyph-name="evt_3dhop" d="M537.524 135.514l280.267 152.834v278.515l-280.267-102.035v-329.315zM509.498 514.313l305.667 111.231-305.667 111.232-305.667-111.232 305.667-111.231zM873.844 624.668v-336.319c0-20.582-11.386-39.412-29.341-49.047l-308.292-168.16c-8.321-4.817-17.517-7.007-26.714-7.007s-18.393 2.19-26.713 7.007l-308.294 168.16c-17.955 9.634-29.341 28.465-29.341 49.047v336.319c0 23.648 14.89 44.668 36.785 52.55l308.294 112.107c6.13 2.189 12.699 3.503 19.268 3.503s13.137-1.313 19.268-3.503l308.294-112.107c21.897-7.883 36.786-28.902 36.786-52.55z" />
<glyph unicode="&#xe801;" glyph-name="evt_viscoll" d="M546.82 790.159c-206.646-24.086-361.087-173.295-360.911-343.929 0.172-168.602 155.306-318.767 360.755-341.206 82.006-8.955 166.25-4.598 249.484-5.894 37.604-0.585 75.238-0.396 112.854-0.125 19.13 0.135 26.642-6.879 27.906-22.332 4.65-57.051 4.506-57.564-66.864-57.564-82.35 0-164.714-0.018-247.063 0.006-305.779 0.076-540.628 193.768-535.676 441.78 4.066 203.873 207.178 389.686 456.712 408.695 120.988 9.216 243.6 4.342 365.475 5.98 19.448 0.261 26.266-7.467 27.418-22.675 4.291-56.711 4.213-57.167-64.299-57.167-42.709 0-85.407 0-128.11 0-0.036 0.75-132.708 2.006-197.68-5.569zM753.793 747.031c47.792-0.010 95.589 0.124 143.384-0.054 37.132-0.135 38.921-1.803 39.254-32.738 0.054-4.947-0.476-9.922 0.060-14.829 2.182-20.193-8.87-27.835-33.86-27.584-76.258 0.764-152.528 0.431-228.797 0.199-72.705-0.216-140.462-12.076-200.058-49.355-108.975-68.166-137.071-193.542-63.048-288.207 56.842-72.693 141.005-104.376 244.024-106.107 81.318-1.362 162.716-1.102 244.035 0.111 29.706 0.439 41.030-8.57 38.097-31.776-1.030-8.159 2.794-17.695-1.228-24.385-4.733-7.874-15.493-18.927-23.773-19.004-107.751-0.956-216.445-7.372-323.121 1.561-239.4 20.051-387.316 236.495-286.875 413.941 65.879 116.396 179.011 177.566 339.031 178.208 37.623 0.15 75.251 0.024 112.874 0.019zM766.162 291.227c-39.668-0.029-79.345-0.201-119.013 0.006-109.628 0.58-198.978 73.763-199.339 163.102-0.358 89.194 89.138 163.51 198.178 163.996 83.411 0.372 166.83 0.174 250.24 0.040 37.831-0.059 39.798-1.836 40.21-31.993 0.591-42.863 0.591-42.883-51.214-42.907-71.204-0.033-142.441 0.89-213.608-0.376-47.513-0.841-91.311-10.419-114.029-49.737-30.509-52.79 0.716-108.589 70.938-121.362 31.253-5.686 64.478-5.168 96.852-5.622 57.968-0.817 115.989-1.053 173.933 0.11 27.591 0.552 40.115-7.211 37.253-29.959-0.917-7.343-0.561-14.84-0.166-22.241 0.917-17.087-9.67-23.357-29.855-23.169-46.786 0.439-93.583 0.141-140.38 0.111z" />
<glyph unicode="&#xe8f6;" glyph-name="evt_close" d="M814.637 695.625l-60.026 60.026-240.103-240.103-240.103 240.103-60.026-60.026 240.103-240.103-240.103-240.103 60.026-60.026 240.103 240.103 240.103-240.103 60.026 60.026-240.103 240.103 240.103 240.103z" />
<glyph unicode="&#xe900;" glyph-name="evt_add" d="M814.637 412.646h-257.253v-257.253h-85.751v257.253h-257.253v85.751h257.253v257.253h85.751v-257.253h257.253v-85.751z" />
<glyph unicode="&#xe901;" glyph-name="evt_book" d="M836.074 777.089v-696.728h-563.815c-45.020 0-81.463 36.445-81.463 81.463s36.445 81.463 81.463 81.463h510.219v640.991h-535.944c-60.026 0-107.189-49.307-107.189-107.189v-643.134c0-60.026 49.307-107.189 107.189-107.189h643.134v750.324h-53.593zM272.26 187.549v0 0c-15.008 0-27.868-12.865-27.868-25.725s12.865-27.868 27.868-27.868v0 0h510.219v53.593h-510.219z" />
<glyph unicode="&#xe902;" glyph-name="evt_bookmark-alt" d="M716.023 792.095h-403.031c-45.020 0-79.318-36.445-79.318-79.318v-640.991l280.835 117.908 280.835-120.052v640.991c0 45.020-36.445 81.463-79.318 81.463zM716.023 189.694l-201.515 87.897-201.515-87.897v520.939h400.886v-520.939z" />
<glyph unicode="&#xe903;" glyph-name="evt_bookmark" d="M713.878 792.095h-398.743c-42.877 0-79.318-36.445-79.318-79.318v-643.134l278.691 120.052 278.691-120.052v640.991c0 45.020-36.445 81.463-79.318 81.463z" />
<glyph unicode="&#xe904;" glyph-name="evt_bookreader" d="M900.388 798.527h-771.761c-47.163 0-85.751-38.59-85.751-85.751v-557.383c0-47.163 38.59-85.751 85.751-85.751h771.761c47.163 0 85.751 38.59 85.751 85.751v557.383c0 47.163-38.59 85.751-85.751 85.751zM218.666 266.87l53.593-75.032 79.318 102.9 107.189-139.347h-321.567l81.463 111.477zM632.415 266.87l53.593-75.032 79.318 102.9 107.189-139.347h-321.567l81.463 111.477z" />
<glyph unicode="&#xe905;" glyph-name="evt_books" d="M252.225 793.005h-166.726c-14.963 0-25.65-12.826-25.65-27.787v-628.427c0-14.963 10.687-27.787 25.65-27.787h164.589c14.963 0 27.787 12.826 27.787 27.787v628.427c2.137 14.963-10.687 27.787-25.65 27.787zM224.438 622.005h-111.15v57.712h111.15v-57.712zM525.827 793.005h-164.589c-14.963 0-27.787-12.826-27.787-27.787v-628.427c0-14.963 12.826-27.787 27.787-27.787h164.589c14.963 0 27.787 12.826 27.787 27.787v628.427c0 14.963-10.687 27.787-27.787 27.787zM500.176 622.005h-111.15v57.712h111.15v-57.712zM716.065 750.255l-147.488-76.95c-12.826-6.412-19.238-23.513-12.826-38.476l247.951-508.726c6.412-14.963 23.513-19.238 36.337-12.826l147.488 76.95c12.826 6.412 19.238 23.513 12.826 38.476l-245.813 508.726c-6.412 12.826-23.513 19.238-38.476 12.826z" />
<glyph unicode="&#xe907;" glyph-name="evt_code" d="M403.031 258.294l-195.084 197.228 197.228 197.228-62.171 60.026-257.253-257.253 257.253-257.253 60.026 60.026zM625.984 258.294l197.228 197.228-197.228 197.228 60.026 60.026 257.253-257.253-257.253-257.253-60.026 60.026z" />
<glyph unicode="&#xe908;" glyph-name="evt_collation" d="M408.264 455.28h209.476v-51.3h-209.476v51.3zM408.264 540.78h209.476v-51.3h-209.476v51.3zM408.264 369.779h209.476v-51.3h-209.476v51.3zM897.753 793.005h-769.502c-47.025 0-85.499-38.476-85.499-85.499v-555.752c0-47.025 38.476-85.499 85.499-85.499h769.502c47.025 0 85.499 38.476 85.499 85.499v555.752c0 47.025-38.476 85.499-85.499 85.499zM641.252 151.754h-256.5v555.752h256.5v-555.752zM123.975 455.28h209.476v-51.3h-209.476v51.3zM123.975 540.78h209.476v-51.3h-209.476v51.3zM123.975 369.779h209.476v-51.3h-209.476v51.3zM662.626 455.28h209.476v-51.3h-209.476v51.3zM662.626 540.78h209.476v-51.3h-209.476v51.3zM662.626 369.779h209.476v-51.3h-209.476v51.3zM897.753 151.754h-256.5v555.752h256.5v-555.752z" />
<glyph unicode="&#xe909;" glyph-name="evt_color-legend" d="M940.503 408.254h-342.001v85.499h342.001v-85.499zM940.503 664.755h-342.001v-85.499h342.001v85.499zM598.501 237.254h342.001v85.499h-342.001v-85.499zM299.251 664.755c0 0-156.037-168.863-156.037-273.601 0-85.499 70.538-156.037 156.037-156.037s156.037 70.538 156.037 156.037c0 104.737-156.037 273.601-156.037 273.601z" />
<glyph unicode="&#xe90a;" glyph-name="evt_color-lens" d="M513.001 835.756c-211.613 0-384.751-173.138-384.751-384.751s173.138-384.751 384.751-384.751c36.337 0 64.126 27.787 64.126 64.126 0 17.101-6.412 32.062-17.101 42.751s-17.101 25.65-17.101 42.751c0 36.337 27.787 64.126 64.126 64.126h76.95c117.563 0 213.751 96.188 213.751 213.751 0 188.101-173.138 342.001-384.751 342.001zM277.875 451.004c-36.337 0-64.126 27.787-64.126 64.126s27.787 64.126 64.126 64.126 64.126-27.787 64.126-64.126-27.787-64.126-64.126-64.126zM406.126 622.005c-36.337 0-64.126 27.787-64.126 64.126s27.787 64.126 64.126 64.126 64.126-27.787 64.126-64.126-27.787-64.126-64.126-64.126zM619.877 622.005c-36.337 0-64.126 27.787-64.126 64.126s27.787 64.126 64.126 64.126 64.126-27.787 64.126-64.126-27.787-64.126-64.126-64.126zM748.128 451.004c-36.337 0-64.126 27.787-64.126 64.126s27.787 64.126 64.126 64.126 64.126-27.787 64.126-64.126-27.787-64.126-64.126-64.126z" />
<glyph unicode="&#xe90b;" glyph-name="evt_colors-fill" d="M707.514 431.767l-382.614 382.614-59.849-59.849 102.6-102.6-220.163-220.163c-25.65-25.65-25.65-66.263 0-89.776l235.126-235.126c12.826-12.826 29.925-19.238 44.888-19.238s32.062 6.412 44.888 19.238l235.126 235.126c25.65 23.513 25.65 66.263 0 89.776zM222.301 386.879l205.2 205.2 205.2-205.2h-410.401zM812.252 322.754c0 0-85.499-91.913-85.499-149.625 0-47.025 38.476-85.499 85.499-85.499s85.499 38.476 85.499 85.499c0 57.712-85.499 149.625-85.499 149.625z" />
<glyph unicode="&#xe90c;" glyph-name="evt_copyright" d="M513.001 878.506c-235.126 0-427.501-192.376-427.501-427.501s192.376-427.501 427.501-427.501 427.501 192.376 427.501 427.501-192.376 427.501-427.501 427.501zM513.001 109.004c-188.101 0-342.001 153.9-342.001 342.001s153.9 342.001 342.001 342.001 342.001-153.9 342.001-342.001c0-188.101-153.9-342.001-342.001-342.001zM431.776 500.167c2.137 12.826 6.412 25.65 12.826 36.337s14.963 19.238 25.65 25.65c10.687 6.412 23.513 8.549 38.476 10.687 10.687 0 19.238-2.137 27.787-6.412s17.101-8.549 21.375-14.963c6.412-6.412 10.687-14.963 14.963-23.513s4.275-17.101 6.412-27.787h76.95c0 19.238-4.275 38.476-10.687 55.575s-17.101 32.062-29.925 42.751-27.787 21.375-47.025 27.787c-17.101 6.412-38.476 10.687-59.849 10.687-27.787 0-51.3-4.275-72.675-14.963-21.375-8.549-38.476-23.513-51.3-38.476-12.826-17.101-23.513-36.337-29.925-57.712s-10.687-44.888-10.687-70.538v-10.687c0-25.65 4.275-47.025 10.687-70.538 6.412-21.375 17.101-40.613 29.925-57.712s29.925-29.925 51.3-38.476c21.375-10.687 44.888-14.963 72.675-14.963 19.238 0 38.476 4.275 55.575 10.687s32.062 14.963 47.025 27.787c12.826 10.687 23.513 25.65 32.062 40.613s12.826 32.062 12.826 49.163h-79.087c0-8.549-2.137-17.101-6.412-25.65s-8.549-14.963-14.963-19.238c-6.412-4.275-14.963-10.687-23.513-12.826s-17.101-4.275-25.65-4.275c-14.963 0-27.787 4.275-38.476 10.687s-19.238 14.963-25.65 25.65-10.687 23.513-12.826 38.476c-2.137 12.826-2.137 25.65-2.137 40.613v10.687c0 17.101 0 29.925 4.275 44.888z" />
<glyph unicode="&#xe90d;" glyph-name="evt_drop-down" d="M299.251 536.504l213.751-213.751 213.751 213.751h-427.501z" />
<glyph unicode="&#xe90e;" glyph-name="evt_drop-up" d="M299.251 365.504l213.751 213.751 213.751-213.751h-427.501z" />
<glyph unicode="&#xe90f;" glyph-name="evt_filter" d="M598.501 151.754v0 384.751l235.126 213.751h-684.002l235.126-213.751v-299.251l213.751-85.499z" />
<glyph unicode="&#xe910;" glyph-name="evt_find-in-page" d="M855.002 126.103v495.901l-256.5 256.5h-342.001c-47.025 0-85.499-38.476-85.499-85.499v-684.002c0-47.025 38.476-85.499 85.499-85.499h513.001c19.238 0 36.337 6.412 51.3 17.101l-190.239 190.239c-34.199-23.513-74.813-36.337-117.563-36.337-117.563 0-213.751 96.188-213.751 213.751s96.188 213.751 213.751 213.751 213.751-96.188 213.751-213.751c0-42.751-12.826-83.362-36.337-117.563l164.589-164.589zM384.751 408.254c0-70.538 57.712-128.25 128.25-128.25s128.25 57.712 128.25 128.25c0 70.538-57.712 128.25-128.25 128.25s-128.25-57.712-128.25-128.25z" />
<glyph unicode="&#xe914;" glyph-name="evt_font-size-minus" d="M622.014 151.754h102.6l-252.225 643.389h-91.913l-252.225-643.389h102.6l55.575 147.488h277.875l57.712-147.488zM324.901 399.704l102.6 271.463 102.6-273.601h-205.2zM596.364 609.18h301.388v61.988h-301.388z" />
<glyph unicode="&#xe915;" glyph-name="evt_font-size-plus-alt" d="M356.964 386.879h177.413l-87.639 235.126-89.776-235.126zM855.002 878.506h-684.002c-47.025 0-85.499-38.476-85.499-85.499v-684.002c0-47.025 38.476-85.499 85.499-85.499h684.002c47.025 0 85.499 38.476 85.499 85.499v684.002c0 47.025-38.476 85.499-85.499 85.499zM615.602 173.129l-49.163 128.25h-241.539l-47.025-128.25h-89.776l218.026 555.752h79.087l220.163-555.752h-89.776zM872.103 632.692h-117.563v-117.563h-59.849v117.563h-117.563v59.849h117.563v117.563h59.849v-117.563h117.563v-59.849z" />
<glyph unicode="&#xe916;" glyph-name="evt_font-size-plus" d="M622.014 151.754h102.6l-252.225 643.389h-91.913l-252.225-643.389h102.6l55.575 147.488h277.875l57.712-147.488zM324.901 399.704l102.6 271.463 102.6-273.601h-205.2zM775.915 671.167v121.838h-61.988v-121.838h-121.838v-61.988h121.838v-121.838h61.988v121.838h121.838v61.988z" />
<glyph unicode="&#xe917;" glyph-name="evt_font-size-reset" d="M795.153 660.481c0 17.101-12.826 29.925-29.925 29.925s-29.925-12.826-29.925-29.925 12.826-29.925 29.925-29.925 29.925 12.826 29.925 29.925zM765.227 795.143c-74.813 0-134.663-59.849-134.663-134.663h-44.888l59.849-59.849 59.849 59.849h-44.888c0 57.712 47.025 104.737 104.737 104.737s104.737-47.025 104.737-104.737c0-57.712-47.025-104.737-104.737-104.737-23.513 0-42.751 6.412-59.849 19.238l-21.375-21.375c23.513-17.101 51.3-27.787 81.225-27.787 74.813 0 134.663 59.849 134.663 134.663-2.137 72.675-61.988 134.663-134.663 134.663zM622.014 151.754h102.6l-252.225 643.389h-91.913l-252.225-643.389h102.6l55.575 147.488h277.875l57.712-147.488zM324.901 399.704l102.6 271.463 102.6-273.601h-205.2z" />
<glyph unicode="&#xe918;" glyph-name="evt_fragment" d="M769.502 237.254h-513.001v85.499h513.001v-85.499zM769.502 408.254h-513.001v85.499h513.001v-85.499zM769.502 579.255h-513.001v85.499h513.001v-85.499zM128.25 23.502l64.126 64.126 64.126-64.126 64.126 64.126 64.126-64.126 64.126 64.126 64.126-64.126 64.126 64.126 64.126-64.126 64.126 64.126 64.126-64.126 64.126 64.126 64.126-64.126v855.002l-64.126-64.126-64.126 64.126-64.126-64.126-64.126 64.126-64.126-64.126-64.126 64.126-64.126-64.126-64.126 64.126-64.126-64.126-64.126 64.126-64.126-64.126-64.126 64.126v-855.002z" />
<glyph unicode="&#xe919;" glyph-name="evt_heatmap-alt" d="M540.789 957.594c0 0 32.062-113.289 32.062-205.2 0-87.639-57.712-160.313-145.351-160.313s-156.037 70.538-156.037 160.313l2.137 14.963c-85.499-102.6-138.939-235.126-138.939-380.476 0-188.101 153.9-342.001 342.001-342.001s342.001 153.9 342.001 342.001c0 230.85-111.15 436.051-277.875 570.714zM463.839 173.129c-76.95 0-136.8 59.849-136.8 134.663 0 68.401 44.888 117.563 119.701 132.525s153.9 51.3 196.651 111.15c17.101-55.575 25.65-113.289 25.65-173.138 0-113.289-91.913-205.2-205.2-205.2z" />
<glyph unicode="&#xe91a;" glyph-name="evt_heatmap" d="M128.25 536.504h213.751v85.499h-213.751v-85.499zM406.126 536.504h213.751v85.499h-213.751v-85.499zM684.002 536.504h213.751v85.499h-213.751v-85.499zM128.25 707.505h85.499v85.499h-85.499v-85.499zM299.251 707.505h85.499v85.499h-85.499v-85.499zM470.251 707.505h85.499v85.499h-85.499v-85.499zM641.252 707.505h85.499v85.499h-85.499v-85.499zM812.252 707.505h85.499v85.499h-85.499v-85.499zM128.25 365.504h342.001v85.499h-342.001v-85.499zM555.752 365.504h342.001v85.499h-342.001v-85.499zM897.753 109.004v171.001h-769.502v-171.001h769.502z" />
<glyph unicode="&#xe91b;" glyph-name="evt_help-alt" d="M470.251 194.503h85.499v85.499h-85.499v-85.499zM513.001 878.506c-235.126 0-427.501-192.376-427.501-427.501s192.376-427.501 427.501-427.501 427.501 192.376 427.501 427.501c0 235.126-192.376 427.501-427.501 427.501zM513.001 109.004c-188.101 0-342.001 153.9-342.001 342.001s153.9 342.001 342.001 342.001 342.001-153.9 342.001-342.001-153.9-342.001-342.001-342.001zM513.001 707.505c-94.051 0-171.001-76.95-171.001-171.001h85.499c0 47.025 38.476 85.499 85.499 85.499s85.499-38.476 85.499-85.499c0-85.499-128.25-74.813-128.25-213.751h85.499c0 96.188 128.25 106.875 128.25 213.751 0 94.051-76.95 171.001-171.001 171.001z" />
<glyph unicode="&#xe91c;" glyph-name="evt_help" d="M513.001 878.506c-235.126 0-427.501-192.376-427.501-427.501s192.376-427.501 427.501-427.501 427.501 192.376 427.501 427.501-192.376 427.501-427.501 427.501zM555.752 151.754h-85.499v85.499h85.499v-85.499zM643.389 483.067l-38.476-38.476c-29.925-32.062-49.163-57.712-49.163-121.838h-85.499v21.375c0 47.025 19.238 89.776 49.163 121.838l53.437 53.437c14.963 14.963 25.65 36.337 25.65 59.849 0 47.025-38.476 85.499-85.499 85.499s-85.499-38.476-85.499-85.499h-85.499c0 94.051 76.95 171.001 171.001 171.001s171.001-76.95 171.001-171.001c0-38.476-14.963-72.675-40.613-96.188z" />
<glyph unicode="&#xe91d;" glyph-name="evt_hotspot" d="M880.652 758.806h-260.776v59.849c0 34.199-25.65 59.849-59.849 59.849h-414.677c-34.199 0-59.849-25.65-59.849-59.849v-307.801c0-34.199 25.65-59.849 59.849-59.849h207.337v-25.65h-100.463c-34.199 0-59.849-25.65-59.849-59.849v-280.013c0-34.199 25.65-59.849 59.849-59.849h401.851c34.199 0 59.849 25.65 59.849 59.849v113.289h166.726c34.199 0 59.849 25.65 59.849 59.849v440.327c0 32.062-25.65 59.849-59.849 59.849zM179.55 545.055v239.401h346.276v-25.65h-113.289c-34.199 0-59.849-25.65-59.849-59.849v-153.9h-173.138zM525.827 664.755v-119.701h-81.225v119.701h81.225zM619.877 117.553h-333.451v213.751h66.263v-72.675c0-34.199 25.65-59.849 59.849-59.849h207.337v-81.225zM619.877 290.691h-173.138v40.613h173.138v-40.613zM846.453 290.691h-132.525v72.675c0 34.199-25.65 59.849-59.849 59.849h-207.337v27.787h113.289c34.199 0 59.849 25.65 59.849 59.849v153.9h226.575v-374.063z" />
<glyph unicode="&#xe91e;" glyph-name="evt_imgtxt" d="M555.752 451.004h299.251v-64.126h-299.251v64.126zM555.752 557.88h299.251v-64.126h-299.251v64.126zM555.752 344.129h299.251v-64.126h-299.251v64.126zM897.753 793.005h-769.502c-47.025 0-85.499-38.476-85.499-85.499v-555.752c0-47.025 38.476-85.499 85.499-85.499h769.502c47.025 0 85.499 38.476 85.499 85.499v555.752c0 47.025-38.476 85.499-85.499 85.499zM897.753 151.754h-384.751v555.752h384.751v-555.752zM218.026 262.904l53.437-74.813 79.087 102.6 106.875-138.939h-320.626l81.225 111.15z" />
<glyph unicode="&#xe91f;" glyph-name="evt_info-alt-r" d="M513.001 790.868c-200.925 0-363.377-162.45-363.377-363.377s162.45-363.377 363.377-363.377 363.377 162.45 363.377 363.377-162.45 363.377-363.377 363.377zM549.339 247.941h-72.675v215.889h72.675v-215.889zM549.339 536.504h-72.675v72.675h72.675v-72.675z" />
<glyph unicode="&#xe920;" glyph-name="evt_info-alt-sq" d="M803.702 793.005h-581.402c-40.613 0-72.675-32.062-72.675-72.675v-581.402c0-40.613 32.062-72.675 72.675-72.675h581.402c40.613 0 72.675 32.062 72.675 72.675v581.402c0 40.613-32.062 72.675-72.675 72.675zM549.339 247.941h-72.675v218.026h72.675v-218.026zM549.339 538.643h-72.675v72.675h72.675v-72.675z" />
<glyph unicode="&#xe921;" glyph-name="evt_info-alt" d="M470.251 237.254h85.499v256.5h-85.499v-256.5zM513.001 878.506c-235.126 0-427.501-192.376-427.501-427.501s192.376-427.501 427.501-427.501 427.501 192.376 427.501 427.501-192.376 427.501-427.501 427.501zM513.001 109.004c-188.101 0-342.001 153.9-342.001 342.001s153.9 342.001 342.001 342.001 342.001-153.9 342.001-342.001c0-188.101-153.9-342.001-342.001-342.001zM470.251 579.255h85.499v85.499h-85.499v-85.499z" />
<glyph unicode="&#xe922;" glyph-name="evt_info" d="M513.001 878.506c-235.126 0-427.501-192.376-427.501-427.501s192.376-427.501 427.501-427.501 427.501 192.376 427.501 427.501-192.376 427.501-427.501 427.501zM555.752 237.254h-85.499v256.5h85.499v-256.5zM555.752 579.255h-85.499v85.499h85.499v-85.499z" />
<glyph unicode="&#xe923;" glyph-name="evt_link" d="M166.726 451.004c0 72.675 59.849 132.525 132.525 132.525h171.001v81.225h-171.001c-117.563 0-213.751-96.188-213.751-213.751s96.188-213.751 213.751-213.751h171.001v81.225h-171.001c-72.675 0-132.525 59.849-132.525 132.525zM342.001 408.254h342.001v85.499h-342.001v-85.499zM726.752 664.755h-171.001v-81.225h171.001c72.675 0 132.525-59.849 132.525-132.525s-59.849-132.525-132.525-132.525h-171.001v-81.225h171.001c117.563 0 213.751 96.188 213.751 213.751s-96.188 213.751-213.751 213.751z" />
<glyph unicode="&#xe924;" glyph-name="evt_list-alt" d="M171.001 365.504h171.001v171.001h-171.001v-171.001zM171.001 151.754h171.001v171.001h-171.001v-171.001zM171.001 579.255h171.001v171.001h-171.001v-171.001zM384.751 365.504h513.001v171.001h-513.001v-171.001zM384.751 151.754h513.001v171.001h-513.001v-171.001zM384.751 750.255v-171.001h513.001v171.001h-513.001z" />
<glyph unicode="&#xe925;" glyph-name="evt_list" d="M128.25 408.254h85.499v85.499h-85.499v-85.499zM128.25 237.254h85.499v85.499h-85.499v-85.499zM128.25 579.255h85.499v85.499h-85.499v-85.499zM299.251 408.254h598.501v85.499h-598.501v-85.499zM299.251 237.254h598.501v85.499h-598.501v-85.499zM299.251 664.755v-85.499h598.501v85.499h-598.501z" />
<glyph unicode="&#xe926;" glyph-name="evt_mail" d="M855.002 793.005h-684.002c-47.025 0-85.499-38.476-85.499-85.499v-513.001c0-47.025 38.476-85.499 85.499-85.499h684.002c47.025 0 85.499 38.476 85.499 85.499v513.001c0 47.025-38.476 85.499-85.499 85.499zM855.002 622.005l-342.001-213.751-342.001 213.751v85.499l342.001-213.751 342.001 213.751v-85.499z" />
<glyph unicode="&#xe927;" glyph-name="evt_menu" d="M128.25 194.503h769.502v85.499h-769.502v-85.499zM128.25 408.254h769.502v85.499h-769.502v-85.499zM128.25 707.505v-85.499h769.502v85.499h-769.502z" />
<glyph unicode="&#xe928;" glyph-name="evt_more-horiz" d="M257.253 541.273c-47.163 0-85.751-38.59-85.751-85.751s38.59-85.751 85.751-85.751 85.751 38.59 85.751 85.751-38.59 85.751-85.751 85.751zM771.761 541.273c-47.163 0-85.751-38.59-85.751-85.751s38.59-85.751 85.751-85.751 85.751 38.59 85.751 85.751-38.59 85.751-85.751 85.751zM514.506 541.273c-47.163 0-85.751-38.59-85.751-85.751s38.59-85.751 85.751-85.751 85.751 38.59 85.751 85.751-38.59 85.751-85.751 85.751z" />
<glyph unicode="&#xe929;" glyph-name="evt_more-vert" d="M513.001 622.005c47.025 0 85.499 38.476 85.499 85.499s-38.476 85.499-85.499 85.499-85.499-38.476-85.499-85.499 38.476-85.499 85.499-85.499zM513.001 536.504c-47.025 0-85.499-38.476-85.499-85.499s38.476-85.499 85.499-85.499 85.499 38.476 85.499 85.499-38.476 85.499-85.499 85.499zM513.001 280.004c-47.025 0-85.499-38.476-85.499-85.499s38.476-85.499 85.499-85.499 85.499 38.476 85.499 85.499-38.476 85.499-85.499 85.499z" />
<glyph unicode="&#xe92a;" glyph-name="evt_note" d="M857.14 536.504l-207.337 256.5h-410.401c-38.476 0-68.401-38.476-68.401-85.499v-513.001c0-47.025 29.925-85.499 68.401-85.499h549.339c38.476 0 68.401 38.476 68.401 85.499v342.001zM615.602 728.88l188.101-235.126h-188.101v235.126z" />
<glyph unicode="&#xe92b;" glyph-name="evt_paragraph" d="M414.677 397.567v-245.813h98.325v542.927h98.325v-542.927h98.325v542.927h98.325v98.325h-393.301c-109.012 0-196.651-87.639-196.651-196.651s87.639-198.788 196.651-198.788z" />
<glyph unicode="&#xe92c;" glyph-name="evt_pin-alt-on" d="M538.652 878.506l-81.225-81.225 81.225-81.225-188.101-213.751h-183.826l147.488-147.488-228.713-299.251v-32.062h32.062l301.388 226.575 147.488-147.488v188.101l213.751 188.101 81.225-81.225 81.225 81.225-403.989 399.713zM459.564 425.354l-53.437 51.3 188.101 188.101 53.437-53.437-188.101-185.963z" />
<glyph unicode="&#xe92d;" glyph-name="evt_pin-off" d="M153.9 153.892c-14.963-14.963-10.687-38.476 4.275-55.575l29.925-29.925 151.763 151.763-59.849 59.849zM814.39 752.393c-117.563 117.563-305.663 117.563-423.226 0-72.675-72.675-98.325-171.001-83.362-265.051l-68.401-68.401c-17.101-17.101-17.101-44.888 0-59.849l181.687-181.687c17.101-17.101 44.888-17.101 59.849 0l68.401 68.401c91.913-17.101 192.376 10.687 265.051 83.362 117.563 117.563 117.563 307.801 0 423.226zM566.439 331.304l-44.888 8.549-70.538-70.538-121.838 121.838 70.538 70.538-8.549 44.888c-12.826 68.401 10.687 138.939 59.849 188.101 83.362 83.362 218.026 83.362 301.388 0s83.362-218.026 0-301.388c-47.025-51.3-117.563-74.813-185.963-61.988z" />
<glyph unicode="&#xe92e;" glyph-name="evt_pin-on" d="M153.9 153.892c-14.963-14.963-10.687-38.476 4.275-55.575l29.925-29.925 151.763 151.763-59.849 59.849zM814.39 752.393c-117.563 117.563-305.663 117.563-423.226 0-72.675-72.675-98.325-171.001-83.362-265.051l-68.401-68.401c-17.101-17.101-17.101-44.888 0-59.849l181.687-181.687c17.101-17.101 44.888-17.101 59.849 0l68.401 68.401c91.913-17.101 192.376 10.687 265.051 83.362 117.563 117.563 117.563 307.801 0 423.226z" />
<glyph unicode="&#xe92f;" glyph-name="evt_search" d="M662.626 365.504h-34.199l-12.826 10.687c42.751 49.163 66.263 111.15 66.263 181.687 0 153.9-123.975 277.875-277.875 277.875s-275.738-123.975-275.738-277.875 123.975-277.875 277.875-277.875c68.401 0 132.525 25.65 181.687 66.263l10.687-10.687v-34.199l213.751-213.751 64.126 64.126-213.751 213.751zM406.126 365.504c-106.875 0-192.376 85.499-192.376 192.376s85.499 192.376 192.376 192.376 192.376-85.499 192.376-192.376-85.499-192.376-192.376-192.376z" />
<glyph unicode="&#xe930;" glyph-name="evt_txt" d="M393.301 795.143h-179.55c-47.025 0-85.499-32.062-85.499-72.675v-583.539c0-40.613 38.476-72.675 85.499-72.675h598.501c47.025 0 85.499 32.062 85.499 72.675v583.539c0 40.613-38.476 72.675-85.499 72.675h-179.55zM812.252 151.754h-598.501v555.752h598.501v-555.752zM305.663 461.692h412.538v-64.126h-412.538v64.126zM305.663 568.567h412.538v-64.126h-412.538v64.126zM305.663 354.817h412.538v-64.126h-412.538v64.126z" />
<glyph unicode="&#xe931;" glyph-name="evt_txttxt" d="M555.752 451.004h299.251v-64.126h-299.251v64.126zM555.752 557.88h299.251v-64.126h-299.251v64.126zM555.752 344.129h299.251v-64.126h-299.251v64.126zM897.753 793.005h-769.502c-47.025 0-85.499-38.476-85.499-85.499v-555.752c0-47.025 38.476-85.499 85.499-85.499h769.502c47.025 0 85.499 38.476 85.499 85.499v555.752c0 47.025-38.476 85.499-85.499 85.499zM897.753 151.754h-384.751v555.752h384.751v-555.752zM138.939 451.004h299.251v-64.126h-299.251v64.126zM138.939 557.88h299.251v-64.126h-299.251v64.126zM138.939 344.129h299.251v-64.126h-299.251v64.126z" />
<glyph unicode="&#xe932;" glyph-name="evt_zoom-fit" d="M138.939 151.754l64.126-64.126 213.751 213.751v34.199l10.687 12.826c49.163-42.751 111.15-66.263 181.687-66.263 153.9 0 277.875 123.975 277.875 277.875s-123.975 277.875-277.875 277.875c-153.9 0-277.875-123.975-277.875-277.875 0-68.401 25.65-132.525 66.263-181.687l-10.687-12.826h-34.199l-213.751-213.751zM416.814 557.88c0 106.875 85.499 192.376 192.376 192.376s192.376-85.499 192.376-192.376-85.499-192.376-192.376-192.376-192.376 85.499-192.376 192.376zM502.314 579.255h85.499v85.499h42.751v-85.499h85.499v-42.751h-85.499v-85.499h-42.751v85.499h-85.499v42.751z" />
<glyph unicode="&#xe933;" glyph-name="evt_zoom-reset" d="M149.625 151.754l64.126-64.126 213.751 213.751v34.199l10.687 10.687c49.163-42.751 111.15-66.263 181.687-66.263 153.9 0 277.875 123.975 277.875 277.875s-123.975 277.875-277.875 277.875-277.875-123.975-277.875-277.875c0-68.401 25.65-132.525 66.263-181.687l-10.687-10.687h-34.199l-213.751-213.751zM427.501 557.88c0 106.875 85.499 192.376 192.376 192.376s192.376-85.499 192.376-192.376-85.499-192.376-192.376-192.376-192.376 85.499-192.376 192.376zM722.478 692.543h-59.849v-29.925h59.849v-59.849h29.925v59.849c0 17.101-12.826 29.925-29.925 29.925zM722.478 453.142h-59.849v-29.925h59.849c17.101 0 29.925 12.826 29.925 29.925v59.849h-29.925v-59.849zM513.001 512.992h-29.925v-59.849c0-17.101 12.826-29.925 29.925-29.925h59.849v29.925h-59.849v59.849zM480.939 662.618v-59.849h32.062v59.849h59.849v29.925h-59.849c-17.101 0-32.062-12.826-32.062-29.925z" />
<glyph unicode="&#xe934;" glyph-name="evt_zoom-out" d="M128.25 151.754l64.126-64.126 213.751 213.751v34.199l10.687 12.826c49.163-42.751 111.15-66.263 181.687-66.263 153.9 0 277.875 123.975 277.875 277.875s-123.975 277.875-277.875 277.875c-153.9 0-277.875-123.975-277.875-277.875 0-68.401 25.65-132.525 66.263-181.687l-10.687-12.826h-34.199l-213.751-213.751zM406.126 557.88c0 106.875 85.499 192.376 192.376 192.376s192.376-85.499 192.376-192.376-85.499-192.376-192.376-192.376-192.376 85.499-192.376 192.376zM705.377 536.504h-213.751v42.751h213.751v-42.751z" />
<glyph unicode="&#xe935;" glyph-name="evt_zoom-in" d="M658.352 429.63v256.5h-42.751l-85.499-42.751v-42.751h64.126v-171.001h64.126zM149.625 151.754l64.126-64.126 213.751 213.751v34.199l10.687 10.687c49.163-42.751 111.15-66.263 181.687-66.263 153.9 0 277.875 123.975 277.875 277.875s-123.975 277.875-277.875 277.875-277.875-123.975-277.875-277.875c0-68.401 25.65-132.525 66.263-181.687l-10.687-10.687h-34.199l-213.751-213.751zM427.501 557.88c0 106.875 85.499 192.376 192.376 192.376s192.376-85.499 192.376-192.376-85.499-192.376-192.376-192.376-192.376 85.499-192.376 192.376z" />
<glyph unicode="&#xe936;" glyph-name="evt_zoom" d="M128.25 151.754l64.126-64.126 213.751 213.751v34.199l10.687 10.687c49.163-42.751 111.15-66.263 181.687-66.263 153.9 0 277.875 123.975 277.875 277.875s-123.975 277.875-277.875 277.875-277.875-123.975-277.875-277.875c0-68.401 25.65-132.525 66.263-181.687l-10.687-10.687h-34.199l-213.751-213.751zM406.126 557.88c0 106.875 85.499 192.376 192.376 192.376s192.376-85.499 192.376-192.376-85.499-192.376-192.376-192.376-192.376 85.499-192.376 192.376z" />
<glyph unicode="&#xe937;" glyph-name="evt_align" d="M726.752 66.253h85.499v256.5h-85.499v-256.5zM213.751 66.253h85.499v427.501h-85.499v-427.501zM897.753 493.755h-85.499v342.001h-85.499v-342.001h-85.499v-85.499h256.5v85.499zM384.751 237.254h85.499v-171.001h85.499v171.001h85.499v85.499h-256.5v-85.499zM555.752 835.756h-85.499v-427.501h85.499v427.501zM384.751 579.255v85.499h-85.499v171.001h-85.499v-171.001h-85.499v-85.499h256.5z" />
<glyph unicode="&#xe938;" glyph-name="evt_bookmark-alt2" d="M769.502 795.143h-513.001c-47.025 0-85.499-32.062-85.499-72.675v-583.539c0-40.613 38.476-72.675 85.499-72.675h513.001c47.025 0 85.499 32.062 85.499 72.675v583.539c0 40.613-38.476 72.675-85.499 72.675zM256.5 722.467h213.751v-292.839l-106.875 55.575-106.875-55.575v292.839z" />
<glyph unicode="&#xe939;" glyph-name="evt_bookreader-alt" d="M897.753 771.63c-47.025 14.963-100.463 21.375-149.625 21.375-83.362 0-173.138-17.101-235.126-64.126-61.988 47.025-151.763 64.126-235.126 64.126s-173.138-17.101-235.126-64.126v-626.29c0-10.687 10.687-21.375 21.375-21.375 4.275 0 6.412 2.137 10.687 2.137 57.712 27.787 141.076 47.025 203.063 47.025 83.362 0 173.138-17.101 235.126-64.126 57.712 36.337 162.45 64.126 235.126 64.126 70.538 0 143.213-12.826 203.063-44.888 4.275-2.137 6.412-2.137 10.687-2.137 10.687 0 21.375 10.687 21.375 21.375v624.152c-25.65 19.238-53.437 32.062-85.499 42.751zM897.753 194.503c-47.025 14.963-98.325 21.375-149.625 21.375-72.675 0-177.413-27.787-235.126-64.126v491.627c57.712 36.337 162.45 64.126 235.126 64.126 51.3 0 102.6-6.412 149.625-21.375v-491.627z" />
<glyph unicode="&#xe93a;" glyph-name="evt_font-size-minus-alt" d="M356.964 386.879h177.413l-87.639 235.126-89.776-235.126zM855.002 878.506h-684.002c-47.025 0-85.499-38.476-85.499-85.499v-684.002c0-47.025 38.476-85.499 85.499-85.499h684.002c47.025 0 85.499 38.476 85.499 85.499v684.002c0 47.025-38.476 85.499-85.499 85.499zM615.602 173.129l-49.163 128.25h-241.539l-47.025-128.25h-89.776l218.026 555.752h79.087l220.163-555.752h-89.776zM876.378 617.73h-292.839v59.849h292.839z" />
<glyph unicode="&#xe93b;" glyph-name="evt_font-size-reset-alt" d="M356.964 386.879h177.413l-87.639 235.126-89.776-235.126zM855.002 878.506h-684.002c-47.025 0-85.499-38.476-85.499-85.499v-684.002c0-47.025 38.476-85.499 85.499-85.499h684.002c47.025 0 85.499 38.476 85.499 85.499v684.002c0 47.025-38.476 85.499-85.499 85.499zM615.602 173.129l-49.163 128.25h-241.539l-47.025-128.25h-89.776l218.026 555.752h79.087l220.163-555.752h-89.776zM722.478 519.405c-55.575 0-104.737 34.199-123.975 81.225h47.025c17.101-25.65 44.888-40.613 79.087-40.613 53.437 0 96.188 42.751 96.188 96.188s-42.751 96.188-96.188 96.188c-36.337 0-68.401-21.375-83.362-51.3l42.751-42.751h-109.012v106.875l36.337-36.337c21.375 38.476 64.126 64.126 111.15 64.126 74.813 0 136.8-61.988 136.8-136.8s-61.988-136.8-136.8-136.8z" />
<glyph unicode="&#xe93c;" glyph-name="evt_zoom-reset1" d="M356.964 386.879h177.413l-87.639 235.126-89.776-235.126zM855.002 878.506h-684.002c-47.025 0-85.499-38.476-85.499-85.499v-684.002c0-47.025 38.476-85.499 85.499-85.499h684.002c47.025 0 85.499 38.476 85.499 85.499v684.002c0 47.025-38.476 85.499-85.499 85.499zM615.602 173.129l-49.163 128.25h-241.539l-47.025-128.25h-89.776l218.026 555.752h79.087l220.163-555.752h-89.776zM722.478 519.405c-55.575 0-104.737 34.199-123.975 81.225h47.025c17.101-25.65 44.888-40.613 79.087-40.613 53.437 0 96.188 42.751 96.188 96.188s-42.751 96.188-96.188 96.188c-36.337 0-68.401-21.375-83.362-51.3l42.751-42.751h-109.012v106.875l36.337-36.337c21.375 38.476 64.126 64.126 111.15 64.126 74.813 0 136.8-61.988 136.8-136.8s-61.988-136.8-136.8-136.8z" />
<glyph unicode="&#xe93d;" glyph-name="evt_font-size" d="M356.964 386.879h177.413l-87.639 235.126-89.776-235.126zM855.002 878.506h-684.002c-47.025 0-85.499-38.476-85.499-85.499v-684.002c0-47.025 38.476-85.499 85.499-85.499h684.002c47.025 0 85.499 38.476 85.499 85.499v684.002c0 47.025-38.476 85.499-85.499 85.499zM615.602 173.129l-49.163 128.25h-241.539l-47.025-128.25h-89.776l218.026 555.752h79.087l220.163-555.752h-89.776zM741.715 692.543c-21.375 0-40.613-17.101-40.613-40.613s17.101-40.613 40.613-40.613 40.613 17.101 40.613 40.613-19.238 40.613-40.613 40.613zM846.453 651.929c0-4.275 0-8.549 0-12.826l29.925-23.513c2.137-2.137 4.275-6.412 2.137-8.549l-29.925-49.163c-2.137-2.137-6.412-4.275-8.549-2.137l-34.199 14.963c-6.412-6.412-14.963-10.687-23.513-12.826l-4.275-36.337c0-4.275-4.275-6.412-6.412-6.412h-55.575c-4.275 0-6.412 2.137-6.412 6.412l-4.275 36.337c-8.549 4.275-17.101 8.549-23.513 12.826l-34.199-14.963c-4.275-2.137-6.412 0-8.549 2.137l-27.787 49.163c-2.137 2.137 0 6.412 2.137 8.549l29.925 23.513c0 4.275 0 8.549 0 12.826s0 8.549 0 12.826l-29.925 23.513c-2.137 2.137-4.275 6.412-2.137 8.549l27.787 49.163c2.137 2.137 6.412 4.275 8.549 2.137l34.199-14.963c6.412 6.412 14.963 10.687 23.513 12.826v40.613c0 4.275 4.275 6.412 6.412 6.412h57.712c4.275 0 6.412-2.137 6.412-6.412l4.275-36.337c8.549-4.275 17.101-8.549 23.513-12.826l34.199 14.963c2.137 2.137 6.412 0 8.549-2.137l27.787-49.163c2.137-2.137 0-6.412-2.137-8.549l-29.925-23.513c4.275-6.412 4.275-12.826 4.275-17.101z" />
<glyph unicode="&#xe93e;" glyph-name="evt_thumbnails" d="M171.001 493.755h213.751v256.5h-213.751v-256.5zM171.001 194.503h213.751v256.5h-213.751v-256.5zM427.501 194.503h213.751v256.5h-213.751v-256.5zM684.002 194.503h213.751v256.5h-213.751v-256.5zM427.501 493.755h213.751v256.5h-213.751v-256.5zM684.002 750.255v-256.5h213.751v256.5h-213.751z" />
<glyph unicode="&#xe93f;" glyph-name="evt_case-sensitive" d="M322.223 666.468l-151.055-427.919h88.279l30.81 102.957h155.077l30.81-102.957h88.237l-151.441 427.919h-90.719zM367.753 600.996l57.512-191.28h-115.024l57.512 191.28zM793.79 238.549l-7.875 44.289h-2.353c-14.978-18.827-30.383-31.965-46.215-39.367-15.832-7.146-36.373-10.697-61.62-10.697-24.136 0-40.867 8.902-58.924 26.745-17.974 17.886-26.83 43.305-26.83 76.34 0 34.577 12.111 60.038 36.201 76.34 24.307 16.517 51.051 25.974 94.484 27.388l56.57 1.713v14.335c0 33.035-16.947 49.552-50.795 49.552-26.102 0-56.698-7.704-91.875-23.536l-29.442 59.908c37.53 19.684 79.164 29.527 124.782 29.527 43.82 0 68.038-9.414 91.318-28.329 23.322-19.044 35.003-47.928 35.003-86.868v-217.34h-62.049zM777.315 389.476l-34.319-1.155c-25.846-0.771-45.103-5.434-57.768-13.994-12.58-8.557-18.913-21.567-18.913-39.026 0-24.819 14.378-37.228 43.134-37.228 20.54 0 37.015 5.863 49.296 17.715 12.409 11.855 18.657 27.601 18.657 47.199v26.83z" />
<glyph unicode="&#xe940;" glyph-name="evt_exact-match" d="M848.857 644.582l171.334 171.134c7.816 7.614 7.816 20.24 0.2 28.054-3.608 3.608-8.416 5.61-13.426 5.812l0.602-1.202-93.182 3.206-3.206 93.182c-0.4 11.022-9.618 19.438-20.44 19.038-5.010-0.2-9.82-2.204-13.426-5.812l-170.934-170.332c-3.808-3.808-6.012-9.218-5.812-14.628v-19.838c-203.196 140.074-481.54 88.774-621.613-114.424s-88.774-481.54 114.424-621.613c203.196-140.074 481.54-88.774 621.613 114.424 105.206 152.698 105.206 354.492 0 507.19h19.838c5.41 0 10.42 2.004 14.028 5.812zM837.835 384.875c0.2-104.404-40.278-202.395-114.022-276.34s-171.736-114.624-276.139-114.824h-0.602c-104.204 0-202.194 40.479-276.139 114.223-73.744 73.744-114.424 171.736-114.624 275.938-0.2 104.404 40.278 202.596 114.022 276.34 73.744 73.944 171.736 114.624 276.139 114.824h0.602c86.168 0 170.734-29.056 238.866-81.56l0.602-17.834-63.124-63.124c-50.498 39.678-113.422 61.32-177.747 61.32-83.162 0-162.317-35.87-217.024-98.392-104.804-119.634-92.782-302.19 26.852-406.994 52.702-46.090 120.034-71.54 189.971-71.54 83.162 0 162.317 35.87 217.024 98.392 45.69 52.102 70.938 118.832 71.54 188.168 0.4 63.724-20.44 126.246-58.915 176.745l63.124 63.124 17.434-0.602c52.702-67.732 81.96-152.097 82.16-237.864zM426.432 363.634c6.012-5.812 13.827-9.018 22.044-9.018s16.032 3.206 22.044 9.018l26.050 26.050c0.2-1.402 0.2-2.606 0.2-4.008 0-26.452-21.642-48.094-48.094-48.094s-48.094 21.642-48.094 48.094 21.642 48.094 48.094 48.094c1.202 0 2.606 0 3.808-0.2l-26.050-26.050c-12.024-12.024-12.024-31.662 0-43.886zM448.476 501.904c-39.076 0-75.348-19.438-96.99-52.102-35.268-53.304-20.64-125.646 32.664-160.914 19.038-12.624 41.28-19.238 63.924-19.238 39.076 0 75.348 19.438 96.99 52.102 23.045 34.868 25.65 78.754 7.014 116.026l70.938 70.938c63.724-90.376 48.094-215.42-37.272-287.361-38.676-32.464-87.571-50.498-137.87-50.498v0c-63.524 0-123.24 27.854-164.12 76.349-36.872 43.886-54.506 99.394-49.697 156.305 4.81 57.112 31.662 108.812 75.548 145.684 38.676 32.464 87.571 50.498 138.070 50.498 43.886 0 87.37-13.827 123.24-39.076l-70.938-70.938c-15.83 8.016-33.666 12.224-51.5 12.224zM754.873 692.075l-2.204 68.934 110.816 110.816 1.402-39.678c0.2-17.034 14.028-30.86 31.060-31.060l39.478-1.202-111.218-110.014-69.336 2.204z" />
<glyph unicode="&#xf013;" glyph-name="evt_advanced-search" d="M636.705 453.773c0 67.63-55.162 122.792-122.792 122.792s-122.792-55.162-122.792-122.792 55.162-122.792 122.792-122.792 122.792 55.162 122.792 122.792zM882.286 506.046v-106.482c0-7.194-5.757-15.826-13.426-17.267l-88.732-13.426c-5.275-15.349-11.032-29.739-18.706-43.649 16.311-23.5 33.574-44.604 51.322-66.192 2.879-3.352 4.799-7.675 4.799-11.988s-1.438-7.675-4.316-11.032c-11.51-15.349-76.263-85.856-92.573-85.856-4.316 0-8.633 1.914-12.47 4.316l-66.192 51.799c-13.911-7.194-28.779-13.426-43.649-18.227-3.352-29.264-6.237-60.433-13.911-89.215-1.914-7.675-8.633-13.426-17.267-13.426h-106.482c-8.633 0-16.311 6.237-17.267 14.39l-13.426 88.255c-14.866 4.799-29.264 10.547-43.164 17.749l-67.63-51.322c-3.352-2.879-7.675-4.316-11.988-4.316s-8.633 1.914-11.988 5.275c-25.423 23.022-58.994 52.76-79.141 80.582-2.396 3.352-3.352 7.194-3.352 11.032 0 4.316 1.438 7.675 3.837 11.032 16.311 22.062 34.054 43.164 50.359 65.712-8.16 15.349-14.866 31.176-19.672 47.486l-87.777 12.952c-8.16 1.438-13.911 9.116-13.911 17.267v106.482c0 7.194 5.757 15.826 12.952 17.267l89.215 13.426c4.799 15.349 11.032 29.739 18.706 44.127-16.311 23.022-33.574 44.604-51.322 66.192-2.879 3.352-4.799 7.194-4.799 11.51s1.914 7.675 4.316 11.032c11.51 15.826 76.263 85.856 92.573 85.856 4.316 0 8.633-1.914 12.47-4.799l66.192-51.322c13.911 7.194 28.779 13.426 43.649 18.227 3.352 29.264 6.237 60.433 13.911 89.215 1.914 7.675 8.633 13.426 17.267 13.426h106.482c8.633 0 16.311-6.237 17.267-14.39l13.426-88.255c14.866-4.799 29.264-10.547 43.164-17.749l68.111 51.322c2.879 2.879 7.194 4.316 11.51 4.316s8.633-1.914 11.988-4.799c25.423-23.5 58.994-53.238 79.141-81.537 2.396-2.879 3.352-6.722 3.352-10.547 0-4.316-1.438-7.675-3.837-11.032-16.311-22.062-34.054-43.164-50.359-65.712 8.16-15.349 14.866-31.176 19.672-47.006l87.777-13.426c8.16-1.438 13.911-9.116 13.911-17.267z" />
<glyph unicode="&#xf075;" glyph-name="evt_bubble" d="M1024 438.857c0-202.286-229.143-365.714-512-365.714-28 0-56 1.714-82.857 4.571-74.857-66.286-164-113.143-262.857-138.286-20.571-5.714-42.857-9.714-65.143-12.571-12.571-1.143-24.571 8-27.429 21.714v0.571c-2.857 14.286 6.857 22.857 15.429 33.143 36 40.571 77.143 74.857 104 170.286-117.714 66.857-193.143 170.286-193.143 286.286 0 201.714 229.143 365.714 512 365.714s512-163.429 512-365.714z" />
<glyph unicode="&#xf102;" glyph-name="evt_search-results-open" d="M800.262 224.547c0-4.587-2.294-9.753-5.738-13.195l-28.683-28.683c-3.441-3.441-8.032-5.738-13.195-5.738-4.587 0-9.753 2.294-13.195 5.738l-225.451 225.451-225.451-225.451c-3.441-3.441-8.603-5.738-13.195-5.738s-9.753 2.294-13.195 5.738l-28.683 28.683c-3.441 3.441-5.738 8.603-5.738 13.195s2.294 9.753 5.738 13.195l267.329 267.329c3.441 3.441 8.603 5.738 13.195 5.738s9.753-2.294 13.195-5.738l267.329-267.329c3.441-3.441 5.738-8.603 5.738-13.195zM800.262 444.834c0-4.587-2.294-9.753-5.738-13.195l-28.683-28.683c-3.441-3.441-8.032-5.738-13.195-5.738-4.587 0-9.753 2.294-13.195 5.738l-225.451 225.451-225.451-225.451c-3.441-3.441-8.603-5.738-13.195-5.738s-9.753 2.294-13.195 5.738l-28.683 28.683c-3.441 3.441-5.738 8.603-5.738 13.195s2.294 9.753 5.738 13.195l267.329 267.329c3.441 3.441 8.603 5.738 13.195 5.738s9.753-2.294 13.195-5.738l267.329-267.329c3.441-3.441 5.738-8.603 5.738-13.195z" />
<glyph unicode="&#xf103;" glyph-name="evt_search-results-close" d="M800.262 463.195c0-4.587-2.294-9.753-5.738-13.195l-267.329-267.329c-3.441-3.441-8.603-5.738-13.195-5.738s-9.753 2.294-13.195 5.738l-267.329 267.329c-3.441 3.441-5.738 8.603-5.738 13.195s2.294 9.753 5.738 13.195l28.683 28.683c3.441 3.441 8.032 5.738 13.195 5.738 4.587 0 9.753-2.294 13.195-5.738l225.451-225.451 225.451 225.451c3.441 3.441 8.603 5.738 13.195 5.738s9.753-2.294 13.195-5.738l28.683-28.683c3.441-3.441 5.738-8.603 5.738-13.195zM800.262 683.483c0-4.587-2.294-9.753-5.738-13.195l-267.329-267.329c-3.441-3.441-8.603-5.738-13.195-5.738s-9.753 2.294-13.195 5.738l-267.329 267.329c-3.441 3.441-5.738 8.603-5.738 13.195s2.294 9.753 5.738 13.195l28.683 28.683c3.441 3.441 8.032 5.738 13.195 5.738 4.587 0 9.753-2.294 13.195-5.738l225.451-225.451 225.451 225.451c3.441 3.441 8.603 5.738 13.195 5.738s9.753-2.294 13.195-5.738l28.683-28.683c3.441-3.441 5.738-8.603 5.738-13.195z" />
<glyph unicode="&#xf104;" glyph-name="evt_previous" d="M680.947 692.651c0-4.587-2.294-9.753-5.738-13.195l-225.451-225.451 225.451-225.451c3.441-3.441 5.738-8.603 5.738-13.195s-2.294-9.753-5.738-13.195l-28.683-28.683c-3.441-3.441-8.603-5.738-13.195-5.738s-9.753 2.294-13.195 5.738l-267.329 267.329c-3.441 3.441-5.738 8.603-5.738 13.195s2.294 9.753 5.738 13.195l267.329 267.329c3.441 3.441 8.603 5.738 13.195 5.738s9.753-2.294 13.195-5.738l28.683-28.683c3.441-3.441 5.738-8.032 5.738-13.195z" />
<glyph unicode="&#xf105;" glyph-name="evt_next" d="M680.953 454.005c0-4.587-2.294-9.753-5.738-13.195l-267.329-267.329c-3.441-3.441-8.603-5.738-13.195-5.738s-9.753 2.294-13.195 5.738l-28.683 28.683c-3.441 3.441-5.738 8.032-5.738 13.195 0 4.587 2.294 9.753 5.738 13.195l225.451 225.451-225.451 225.451c-3.441 3.441-5.738 8.603-5.738 13.195s2.294 9.753 5.738 13.195l28.683 28.683c3.441 3.441 8.603 5.738 13.195 5.738s9.753-2.294 13.195-5.738l267.329-267.329c3.441-3.441 5.738-8.603 5.738-13.195z" />
<glyph unicode="&#xf11c;" glyph-name="evt_keyboard" d="M215.686 346.294v-49.718c0-4.663-3.627-8.286-8.286-8.286h-49.718c-4.663 0-8.286 3.627-8.286 8.286v49.718c0 4.663 3.627 8.286 8.286 8.286h49.718c4.663 0 8.286-3.627 8.286-8.286zM281.974 478.875v-49.718c0-4.663-3.627-8.286-8.286-8.286h-116.008c-4.663 0-8.286 3.627-8.286 8.286v49.718c0 4.663 3.627 8.286 8.286 8.286h116.008c4.663 0 8.286-3.627 8.286-8.286zM215.686 611.459v-49.718c0-4.663-3.627-8.286-8.286-8.286h-49.718c-4.663 0-8.286 3.627-8.286 8.286v49.718c0 4.663 3.627 8.286 8.286 8.286h49.718c4.663 0 8.286-3.627 8.286-8.286zM746.012 346.294v-49.718c0-4.663-3.627-8.286-8.286-8.286h-447.466c-4.663 0-8.286 3.627-8.286 8.286v49.718c0 4.663 3.627 8.286 8.286 8.286h447.466c4.663 0 8.286-3.627 8.286-8.286zM414.556 478.875v-49.718c0-4.663-3.627-8.286-8.286-8.286h-49.718c-4.663 0-8.286 3.627-8.286 8.286v49.718c0 4.663 3.627 8.286 8.286 8.286h49.718c4.663 0 8.286-3.627 8.286-8.286zM348.265 611.459v-49.718c0-4.663-3.627-8.286-8.286-8.286h-49.718c-4.663 0-8.286 3.627-8.286 8.286v49.718c0 4.663 3.627 8.286 8.286 8.286h49.718c4.663 0 8.286-3.627 8.286-8.286zM547.14 478.875v-49.718c0-4.663-3.627-8.286-8.286-8.286h-49.718c-4.663 0-8.286 3.627-8.286 8.286v49.718c0 4.663 3.627 8.286 8.286 8.286h49.718c4.663 0 8.286-3.627 8.286-8.286zM480.849 611.459v-49.718c0-4.663-3.627-8.286-8.286-8.286h-49.718c-4.663 0-8.286 3.627-8.286 8.286v49.718c0 4.663 3.627 8.286 8.286 8.286h49.718c4.663 0 8.286-3.627 8.286-8.286zM679.722 478.875v-49.718c0-4.663-3.627-8.286-8.286-8.286h-49.718c-4.663 0-8.286 3.627-8.286 8.286v49.718c0 4.663 3.627 8.286 8.286 8.286h49.718c4.663 0 8.286-3.627 8.286-8.286zM878.595 346.294v-49.718c0-4.663-3.627-8.286-8.286-8.286h-49.718c-4.663 0-8.286 3.627-8.286 8.286v49.718c0 4.663 3.627 8.286 8.286 8.286h49.718c4.663 0 8.286-3.627 8.286-8.286zM613.43 611.459v-49.718c0-4.663-3.627-8.286-8.286-8.286h-49.718c-4.663 0-8.286 3.627-8.286 8.286v49.718c0 4.663 3.627 8.286 8.286 8.286h49.718c4.663 0 8.286-3.627 8.286-8.286zM746.012 611.459v-49.718c0-4.663-3.627-8.286-8.286-8.286h-49.718c-4.663 0-8.286 3.627-8.286 8.286v49.718c0 4.663 3.627 8.286 8.286 8.286h49.718c4.663 0 8.286-3.627 8.286-8.286zM878.595 611.459v-182.301c0-4.663-3.627-8.286-8.286-8.286h-116.008c-4.663 0-8.286 3.627-8.286 8.286v49.718c0 4.663 3.627 8.286 8.286 8.286h58.005v124.295c0 4.663 3.627 8.286 8.286 8.286h49.718c4.663 0 8.286-3.627 8.286-8.286zM944.887 221.999v464.039h-861.787v-464.039h861.787zM1011.179 686.036v-464.039c0-36.771-29.521-66.292-66.292-66.292h-861.787c-36.771 0-66.292 29.521-66.292 66.292v464.039c0 36.771 29.521 66.292 66.292 66.292h861.787c36.771 0 66.292-29.521 66.292-66.292z" />
</font>
</defs>
</svg>
